<svg xmlns="http://www.w3.org/2000/svg" width="59.765" height="58.829" viewBox="0 0 59.765 58.829">
  <g id="Group_302" data-name="Group 302" transform="translate(0 0)">
    <g id="Group_301" data-name="Group 301" transform="translate(0 0)">
      <g id="Group_289" data-name="Group 289" transform="translate(7.358 25.685)">
        <path id="Path_600" data-name="Path 600" d="M518.144,346.044a.49.49,0,0,1-.407-.217l-21.568-32.106a.49.49,0,0,1,.023-.578l.045-.058a.494.494,0,0,1,.384-.186h14.3a.49.49,0,0,1,.479.383l7.218,32.163a.488.488,0,0,1-.285.558A.483.483,0,0,1,518.144,346.044Zm-20.687-32.164,19.635,29.229-6.561-29.229Z" transform="translate(-496.085 -312.9)" fill="#fff"/>
      </g>
      <g id="Group_290" data-name="Group 290" transform="translate(21.707 25.685)">
        <path id="Path_601" data-name="Path 601" d="M524.969,346.044a.49.49,0,0,1-.479-.384L517.271,313.5a.49.49,0,0,1,.478-.6h14.437a.49.49,0,0,1,.479.6l-7.22,32.163A.489.489,0,0,1,524.969,346.044Zm-6.607-32.164,6.607,29.434,6.606-29.434Z" transform="translate(-517.26 -312.9)" fill="#fff"/>
      </g>
      <g id="Group_291" data-name="Group 291" transform="translate(28.926 25.685)">
        <path id="Path_602" data-name="Path 602" d="M528.4,346.044a.5.5,0,0,1-.2-.041.492.492,0,0,1-.281-.557l7.219-32.163a.491.491,0,0,1,.478-.383h15.23a.488.488,0,0,1,.36.159l.053.058a.491.491,0,0,1,.041.613l-22.5,32.106A.494.494,0,0,1,528.4,346.044Zm7.612-32.164-6.59,29.361L550,313.881Z" transform="translate(-527.912 -312.9)" fill="#fff"/>
      </g>
      <g id="Group_292" data-name="Group 292" transform="translate(36.145 15.898)">
        <path id="Path_603" data-name="Path 603" d="M554.284,309.225h-15.23a.489.489,0,0,1-.489-.49v-9.788a.489.489,0,0,1,.489-.49h6.4a.49.49,0,0,1,.364.161l8.831,9.788a.49.49,0,0,1-.363.819Zm-14.739-.981h13.637l-7.946-8.806h-5.69Z" transform="translate(-538.565 -298.458)" fill="#fff"/>
      </g>
      <g id="Group_293" data-name="Group 293" transform="translate(21.707 15.898)">
        <path id="Path_604" data-name="Path 604" d="M532.187,309.225H517.75a.49.49,0,0,1-.491-.49v-9.788a.49.49,0,0,1,.491-.49h14.437a.489.489,0,0,1,.491.49v9.788A.489.489,0,0,1,532.187,309.225Zm-13.947-.981H531.7v-8.806H518.24Z" transform="translate(-517.259 -298.458)" fill="#fff"/>
      </g>
      <g id="Group_294" data-name="Group 294" transform="translate(7.403 15.898)">
        <path id="Path_605" data-name="Path 605" d="M510.946,309.225h-14.3a.49.49,0,0,1-.381-.8l7.906-9.788a.491.491,0,0,1,.381-.182h6.4a.49.49,0,0,1,.49.49v9.788A.49.49,0,0,1,510.946,309.225Zm-13.278-.981h12.787v-8.806h-5.673Z" transform="translate(-496.152 -298.458)" fill="#fff"/>
      </g>
      <g id="Group_295" data-name="Group 295" transform="translate(23.006 0.804)">
        <path id="Path_606" data-name="Path 606" d="M522.106,289.324a.49.49,0,0,1-.466-.642l1.405-4.31-3.667-2.654a.49.49,0,0,1,.287-.887h0l4.525.008,1.393-4.313a.49.49,0,0,1,.467-.34h0a.491.491,0,0,1,.466.34l1.39,4.313,4.527-.008h0a.49.49,0,0,1,.287.887l-3.669,2.654,1.41,4.31a.49.49,0,0,1-.755.548l-3.657-2.671-3.657,2.671A.49.49,0,0,1,522.106,289.324Zm-.922-7.51,2.726,1.973a.49.49,0,0,1,.178.55l-1.046,3.206,2.721-1.988a.491.491,0,0,1,.578,0l2.719,1.986-1.049-3.2a.49.49,0,0,1,.18-.55l2.727-1.973-3.365.007h0a.491.491,0,0,1-.468-.34l-1.032-3.207-1.036,3.207a.485.485,0,0,1-.467.339Z" transform="translate(-519.176 -276.185)" fill="#fff"/>
      </g>
      <g id="Group_296" data-name="Group 296" transform="translate(10.341)">
        <path id="Path_607" data-name="Path 607" d="M507.978,282.984a.49.49,0,0,1-.347-.144l-7-7.005a.49.49,0,1,1,.693-.693l7,7.005a.491.491,0,0,1-.347.837Z" transform="translate(-500.487 -274.998)" fill="#fff"/>
      </g>
      <g id="Group_297" data-name="Group 297" transform="translate(0 12.743)">
        <path id="Path_608" data-name="Path 608" d="M495.281,297.348a.462.462,0,0,1-.127-.017l-9.563-2.566a.49.49,0,1,1,.254-.947l9.563,2.566a.49.49,0,0,1-.127.964Z" transform="translate(-485.227 -293.801)" fill="#fff"/>
      </g>
      <g id="Group_298" data-name="Group 298" transform="translate(41.443)">
        <path id="Path_609" data-name="Path 609" d="M546.873,282.984a.491.491,0,0,1-.347-.837l7-7.005a.49.49,0,1,1,.694.693l-7,7.005A.491.491,0,0,1,546.873,282.984Z" transform="translate(-546.383 -274.998)" fill="#fff"/>
      </g>
      <g id="Group_299" data-name="Group 299" transform="translate(49.222 12.743)">
        <path id="Path_610" data-name="Path 610" d="M558.351,297.348a.49.49,0,0,1-.127-.964l9.563-2.566a.49.49,0,0,1,.254.947l-9.563,2.566A.461.461,0,0,1,558.351,297.348Z" transform="translate(-557.861 -293.801)" fill="#fff"/>
      </g>
      <g id="Group_300" data-name="Group 300" transform="translate(12.405 57.849)">
        <path id="Path_611" data-name="Path 611" d="M537.993,361.343h-33.97a.49.49,0,0,1,0-.981h33.97a.49.49,0,1,1,0,.981Z" transform="translate(-503.533 -360.362)" fill="#fff"/>
      </g>
    </g>
  </g>
</svg>
