<svg xmlns="http://www.w3.org/2000/svg" width="59.764" height="59.445" viewBox="0 0 59.764 59.445">
  <g id="Group_276" data-name="Group 276" transform="translate(0)">
    <g id="Group_275" data-name="Group 275" transform="translate(0)">
      <g id="Group_267" data-name="Group 267" transform="translate(9.653 15.625)">
        <path id="Path_582" data-name="Path 582" d="M254.375,738.662a.49.49,0,0,1-.318-.117l-19.238-16.364a.489.489,0,0,1-.155-.5l7.348-26.476a.49.49,0,0,1,.472-.358h23.781a.491.491,0,0,1,.472.358l7.348,26.476a.492.492,0,0,1-.154.5l-19.24,16.364A.485.485,0,0,1,254.375,738.662Zm-18.683-17.025,18.683,15.891,18.681-15.891-7.164-25.815H242.857Z" transform="translate(-234.646 -694.842)" fill="#fff"/>
      </g>
      <g id="Group_268" data-name="Group 268" transform="translate(28.892 37.043)">
        <path id="Path_583" data-name="Path 583" d="M263.526,748.849a.49.49,0,0,1-.491-.49V726.938a.49.49,0,1,1,.981,0v21.421A.49.49,0,0,1,263.526,748.849Z" transform="translate(-263.035 -726.447)" fill="#fff"/>
      </g>
      <g id="Group_269" data-name="Group 269" transform="translate(24.919 29.08)">
        <path id="Path_584" data-name="Path 584" d="M261.636,723.634a4.469,4.469,0,1,1,4.463-4.467A4.471,4.471,0,0,1,261.636,723.634Zm0-7.956a3.488,3.488,0,1,0,3.482,3.489A3.489,3.489,0,0,0,261.636,715.678Z" transform="translate(-257.172 -714.697)" fill="#fff"/>
      </g>
      <g id="Group_270" data-name="Group 270" transform="translate(12.055)">
        <path id="Path_585" data-name="Path 585" d="M272.353,688.39H238.68a.489.489,0,0,1-.49-.489V672.276a.491.491,0,0,1,.49-.491h33.673a.492.492,0,0,1,.491.491V687.9A.49.49,0,0,1,272.353,688.39Zm-33.183-.98h32.693V672.766H239.17Z" transform="translate(-238.19 -671.785)" fill="#fff"/>
      </g>
      <g id="Group_271" data-name="Group 271" transform="translate(12.055 7.816)">
        <path id="Path_586" data-name="Path 586" d="M272.353,692.107H238.68a.489.489,0,0,1-.49-.489v-7.81a.489.489,0,0,1,.49-.49h33.673a.49.49,0,0,1,.491.49v7.81A.49.49,0,0,1,272.353,692.107Zm-33.183-.98h32.693V684.3H239.17Z" transform="translate(-238.19 -683.318)" fill="#fff"/>
      </g>
      <g id="Group_272" data-name="Group 272" transform="translate(12.777 58.46)">
        <path id="Path_587" data-name="Path 587" d="M271.974,759.031H239.745a.49.49,0,1,1,0-.98h32.229a.49.49,0,1,1,0,.98Z" transform="translate(-239.255 -758.051)" fill="#fff"/>
      </g>
      <g id="Group_273" data-name="Group 273" transform="translate(0 19.856)">
        <path id="Path_588" data-name="Path 588" d="M226.287,712.875h0a.491.491,0,0,1-.469-.346l-1.191-3.887-3.879-1.194a.491.491,0,0,1,0-.938l3.879-1.193,1.191-3.886a.491.491,0,0,1,.469-.346h0a.49.49,0,0,1,.469.346l1.194,3.886,3.882,1.193a.491.491,0,0,1,0,.938l-3.882,1.194-1.194,3.887A.49.49,0,0,1,226.287,712.875Zm-3.729-5.9,2.606.8a.492.492,0,0,1,.325.325l.8,2.608.8-2.608a.492.492,0,0,1,.325-.325l2.607-.8-2.607-.8a.49.49,0,0,1-.325-.325l-.8-2.606-.8,2.606a.491.491,0,0,1-.325.325Z" transform="translate(-220.401 -701.085)" fill="#fff"/>
      </g>
      <g id="Group_274" data-name="Group 274" transform="translate(47.982 41.854)">
        <path id="Path_589" data-name="Path 589" d="M297.1,745.336a.492.492,0,0,1-.469-.347l-1.191-3.886-3.884-1.192a.491.491,0,0,1,0-.938l3.884-1.195,1.191-3.886a.491.491,0,0,1,.938,0l1.191,3.886,3.885,1.195a.491.491,0,0,1,0,.938l-3.884,1.192-1.191,3.886A.491.491,0,0,1,297.1,745.336Zm-3.731-5.9,2.607.8a.493.493,0,0,1,.325.325l.8,2.606.8-2.606a.491.491,0,0,1,.324-.325l2.608-.8-2.608-.8a.489.489,0,0,1-.324-.326l-.8-2.6-.8,2.6a.49.49,0,0,1-.325.326Z" transform="translate(-291.205 -733.546)" fill="#fff"/>
      </g>
    </g>
  </g>
</svg>
