<svg xmlns="http://www.w3.org/2000/svg" width="39.514" height="39.65" viewBox="0 0 39.514 39.65">
  <g id="Group_80" data-name="Group 80" transform="translate(-212.078 -101.062)">
    <g id="Group_79" data-name="Group 79" transform="translate(212.078 101.062)">
      <path id="Path_255" data-name="Path 255" d="M227.716,175.307h-6.4L239.4,193.453a15.874,15.874,0,0,1-23.445-14.012,16,16,0,0,1,.54-4.134h-3.988a19.849,19.849,0,0,0,19.327,23.959,19.66,19.66,0,0,0,13.97-5.807l-2.741-2.751Z" transform="translate(-212.078 -159.616)" fill="#4e4d5a"/>
      <path id="Path_256" data-name="Path 256" d="M262.513,101.062a19.613,19.613,0,0,0-7.948,1.67q-.78.343-1.524.753a19.582,19.582,0,0,0-2.064,1.306l2.787,2.8a15.871,15.871,0,0,1,24.629,13.3,15.9,15.9,0,0,1-2.626,8.78l2.787,2.8a19.62,19.62,0,0,0,1.3-2.071q.407-.746.75-1.529a19.845,19.845,0,0,0-18.092-27.8Z" transform="translate(-242.755 -101.062)" fill="#4e4d5a"/>
      <path id="Path_257" data-name="Path 257" d="M282.045,146.5a2.281,2.281,0,0,1-.993.227H278.9l4.207,4.222a6.775,6.775,0,0,0,2.194-1.177,6.845,6.845,0,0,0-4.253-12.189H269.793l4.525,4.541h6.734a2.3,2.3,0,0,1,.993,4.376Z" transform="translate(-257.595 -129.869)" fill="#4e4d5a"/>
      <path id="Path_258" data-name="Path 258" d="M231.6,138.438a15.935,15.935,0,0,0-2.728,3.671l-2.841-2.841a19.857,19.857,0,0,1,1.161-1.681h3.556Z" transform="translate(-223.082 -129.868)" fill="#4e4d5a"/>
    </g>
  </g>
</svg>
