<svg xmlns="http://www.w3.org/2000/svg" width="59.762" height="52.66" viewBox="0 0 59.762 52.66">
  <g id="Group_266" data-name="Group 266" transform="translate(0 0)">
    <g id="Group_257" data-name="Group 257" transform="translate(35.505 10.169)">
      <g id="Group_251" data-name="Group 251" transform="translate(0.893 4.577)">
        <path id="Path_568" data-name="Path 568" d="M273,282.222a.475.475,0,0,1-.176-.034h0a.478.478,0,0,1-.244-.219l-3.3-6.26a.478.478,0,0,1,.043-.51L274,269.084a.478.478,0,0,1,.554-.153l6.182,2.479a.477.477,0,0,1,.3.493l-.85,7.647a.476.476,0,0,1-.32.4l-6.708,2.249A.5.5,0,0,1,273,282.222Zm-2.731-6.687,2.964,5.63,6.033-2.023.776-6.984-5.508-2.209Z" transform="translate(-269.23 -268.898)" fill="#fff"/>
      </g>
      <g id="Group_252" data-name="Group 252" transform="translate(4.187 11.382)">
        <path id="Path_569" data-name="Path 569" d="M274.567,285.459a.457.457,0,0,1-.177-.035h0a.477.477,0,0,1-.265-.619l2.233-5.567a.476.476,0,0,1,.884.354l-2.232,5.568a.472.472,0,0,1-.254.26A.477.477,0,0,1,274.567,285.459Zm-.187-.551h0Zm2.606-5.417Z" transform="translate(-274.091 -278.939)" fill="#fff"/>
      </g>
      <g id="Group_253" data-name="Group 253" transform="translate(5.722 9.232)">
        <path id="Path_570" data-name="Path 570" d="M277.941,278.947a1.59,1.59,0,1,1,1.477-1A1.578,1.578,0,0,1,277.941,278.947Zm0-2.227a.642.642,0,0,0-.593.4.638.638,0,1,0,.593-.4Z" transform="translate(-276.355 -275.767)" fill="#fff"/>
      </g>
      <g id="Group_254" data-name="Group 254" transform="translate(4.276)">
        <path id="Path_571" data-name="Path 571" d="M283.449,270.666a.472.472,0,0,1-.177-.035l-8.751-3.509a.476.476,0,0,1-.265-.619l1.628-4.061a.476.476,0,0,1,.619-.266l8.751,3.51a.476.476,0,0,1,.264.62l-1.628,4.06a.478.478,0,0,1-.442.3Zm-8.132-4.25,7.868,3.155,1.273-3.177-7.868-3.155Z" transform="translate(-274.222 -262.144)" fill="#fff"/>
      </g>
      <g id="Group_255" data-name="Group 255" transform="translate(4.276 2.031)">
        <path id="Path_572" data-name="Path 572" d="M283.449,271.632a.464.464,0,0,1-.177-.035l-8.751-3.509a.476.476,0,0,1-.265-.619l.815-2.03a.474.474,0,0,1,.618-.265l8.752,3.509a.478.478,0,0,1,.264.62l-.814,2.029A.476.476,0,0,1,283.449,271.632Zm-8.132-4.25,7.868,3.155.459-1.146-7.867-3.155Z" transform="translate(-274.222 -265.141)" fill="#fff"/>
      </g>
      <g id="Group_256" data-name="Group 256" transform="translate(0 15.269)">
        <path id="Path_573" data-name="Path 573" d="M276.764,288.986a.473.473,0,0,1-.177-.034h0l-8.376-3.359a.476.476,0,0,1,.354-.884l8.377,3.359a.476.476,0,0,1-.178.918Z" transform="translate(-267.912 -284.675)" fill="#fff"/>
      </g>
    </g>
    <g id="Group_258" data-name="Group 258" transform="translate(0 0)">
      <path id="Path_574" data-name="Path 574" d="M272.653,292.539h-54.5a2.634,2.634,0,0,1-2.631-2.63V249.773a2.637,2.637,0,0,1,2.631-2.635h54.5a2.635,2.635,0,0,1,2.629,2.635v40.135A2.632,2.632,0,0,1,272.653,292.539Zm-54.5-44.419a1.654,1.654,0,0,0-1.651,1.654v40.135a1.652,1.652,0,0,0,1.651,1.649h54.5a1.651,1.651,0,0,0,1.648-1.649V249.773a1.653,1.653,0,0,0-1.648-1.654Z" transform="translate(-215.519 -247.138)" fill="#fff"/>
    </g>
    <g id="Group_259" data-name="Group 259" transform="translate(22.256 44.42)">
      <path id="Path_575" data-name="Path 575" d="M263.125,320.926H248.852a.491.491,0,0,1-.485-.567l1.151-7.259a.491.491,0,0,1,.485-.414h11.971a.491.491,0,0,1,.485.414l1.143,7.21a.481.481,0,0,1,.016.125A.49.49,0,0,1,263.125,320.926Zm-13.7-.981h13.124l-.995-6.279H250.42Z" transform="translate(-248.361 -312.686)" fill="#fff"/>
    </g>
    <g id="Group_260" data-name="Group 260" transform="translate(13.32 51.679)">
      <path id="Path_576" data-name="Path 576" d="M267.809,324.379H235.665a.49.49,0,1,1,0-.981h32.144a.49.49,0,1,1,0,.981Z" transform="translate(-235.174 -323.398)" fill="#fff"/>
    </g>
    <g id="Group_261" data-name="Group 261" transform="translate(27.262 37.717)">
      <path id="Path_577" data-name="Path 577" d="M258.37,308.042a2.623,2.623,0,1,1,2.621-2.621A2.624,2.624,0,0,1,258.37,308.042Zm0-4.266a1.643,1.643,0,1,0,1.641,1.645A1.644,1.644,0,0,0,258.37,303.776Z" transform="translate(-255.748 -302.795)" fill="#fff"/>
    </g>
    <g id="Group_262" data-name="Group 262" transform="translate(0 35.279)">
      <path id="Path_578" data-name="Path 578" d="M272.653,309.319h-54.5a2.634,2.634,0,0,1-2.631-2.63l0-7a.491.491,0,0,1,.491-.491h58.778a.491.491,0,0,1,.491.491v7A2.632,2.632,0,0,1,272.653,309.319Zm-56.15-9.14,0,6.51a1.652,1.652,0,0,0,1.651,1.649h54.5a1.651,1.651,0,0,0,1.648-1.649v-6.51Z" transform="translate(-215.519 -299.198)" fill="#fff"/>
    </g>
    <g id="Group_263" data-name="Group 263" transform="translate(8.563 10.86)">
      <path id="Path_579" data-name="Path 579" d="M247.474,264.144H228.645a.49.49,0,0,1,0-.981h18.829a.49.49,0,0,1,0,.981Z" transform="translate(-228.155 -263.163)" fill="#fff"/>
    </g>
    <g id="Group_264" data-name="Group 264" transform="translate(8.563 17.908)">
      <path id="Path_580" data-name="Path 580" d="M242.422,274.545H228.645a.49.49,0,0,1,0-.981h13.777a.49.49,0,1,1,0,.981Z" transform="translate(-228.155 -273.564)" fill="#fff"/>
    </g>
    <g id="Group_265" data-name="Group 265" transform="translate(8.563 24.956)">
      <path id="Path_581" data-name="Path 581" d="M247.474,284.946H228.645a.49.49,0,0,1,0-.981h18.829a.49.49,0,0,1,0,.981Z" transform="translate(-228.155 -283.965)" fill="#fff"/>
    </g>
  </g>
</svg>
