<svg xmlns="http://www.w3.org/2000/svg" width="59.764" height="48.177" viewBox="0 0 59.764 48.177">
  <g id="Group_288" data-name="Group 288" transform="translate(0 0)">
    <g id="Group_287" data-name="Group 287" transform="translate(0 0)">
      <g id="Group_277" data-name="Group 277">
        <path id="Path_590" data-name="Path 590" d="M676.917,331.035H618.133a.49.49,0,0,1-.491-.491v-47.2a.489.489,0,0,1,.491-.49h58.784a.49.49,0,0,1,.49.49v47.2A.49.49,0,0,1,676.917,331.035Zm-58.295-.981h57.8V283.839h-57.8Z" transform="translate(-617.642 -282.858)" fill="#fff"/>
      </g>
      <g id="Group_278" data-name="Group 278">
        <path id="Path_591" data-name="Path 591" d="M676.917,295.258H618.133a.49.49,0,0,1-.491-.491V283.348a.489.489,0,0,1,.491-.49h58.784a.49.49,0,0,1,.49.49v11.419A.49.49,0,0,1,676.917,295.258Zm-58.295-.981h57.8V283.839h-57.8Z" transform="translate(-617.642 -282.858)" fill="#fff"/>
      </g>
      <g id="Group_279" data-name="Group 279" transform="translate(30.036 3.5)">
        <path id="Path_592" data-name="Path 592" d="M666.978,293.423h-4.523a.49.49,0,0,1-.491-.491v-4.42a.49.49,0,0,1,.491-.489h4.523a.49.49,0,0,1,.49.489v4.42A.49.49,0,0,1,666.978,293.423Zm-4.033-.981h3.542V289h-3.542Z" transform="translate(-661.964 -288.023)" fill="#fff"/>
      </g>
      <g id="Group_280" data-name="Group 280" transform="translate(39.08 3.5)">
        <path id="Path_593" data-name="Path 593" d="M680.321,293.423H675.8a.49.49,0,0,1-.491-.491v-4.42a.49.49,0,0,1,.491-.489h4.52a.49.49,0,0,1,.491.489v4.42A.49.49,0,0,1,680.321,293.423Zm-4.031-.981h3.541V289H676.29Z" transform="translate(-675.31 -288.023)" fill="#fff"/>
      </g>
      <g id="Group_281" data-name="Group 281" transform="translate(48.124 3.5)">
        <path id="Path_594" data-name="Path 594" d="M693.668,293.423h-4.523a.49.49,0,0,1-.489-.491v-4.42a.489.489,0,0,1,.489-.489h4.523a.489.489,0,0,1,.491.489v4.42A.49.49,0,0,1,693.668,293.423Zm-4.033-.981h3.542V289h-3.542Z" transform="translate(-688.656 -288.023)" fill="#fff"/>
      </g>
      <g id="Group_282" data-name="Group 282" transform="translate(15.396 24.998)">
        <path id="Path_595" data-name="Path 595" d="M640.852,325.251a.49.49,0,0,1-.269-.9l6.889-4.526a.49.49,0,0,1,.538.82l-6.889,4.525A.483.483,0,0,1,640.852,325.251Z" transform="translate(-640.362 -319.746)" fill="#fff"/>
      </g>
      <g id="Group_283" data-name="Group 283" transform="translate(15.396 29.523)">
        <path id="Path_596" data-name="Path 596" d="M647.74,331.929a.487.487,0,0,1-.268-.081l-6.889-4.525a.49.49,0,0,1,.538-.819l6.889,4.524a.491.491,0,0,1-.27.9Z" transform="translate(-640.362 -326.424)" fill="#fff"/>
      </g>
      <g id="Group_284" data-name="Group 284" transform="translate(36.497 24.998)">
        <path id="Path_597" data-name="Path 597" d="M678.876,325.252a.485.485,0,0,1-.268-.08l-6.889-4.525a.491.491,0,0,1,.539-.82l6.889,4.525a.49.49,0,0,1-.27.9Z" transform="translate(-671.498 -319.746)" fill="#fff"/>
      </g>
      <g id="Group_285" data-name="Group 285" transform="translate(36.496 29.523)">
        <path id="Path_598" data-name="Path 598" d="M671.989,331.929a.491.491,0,0,1-.27-.9l6.889-4.524a.49.49,0,1,1,.539.819l-6.889,4.525A.494.494,0,0,1,671.989,331.929Z" transform="translate(-671.498 -326.423)" fill="#fff"/>
      </g>
      <g id="Group_286" data-name="Group 286" transform="translate(25.408 19.99)">
        <path id="Path_599" data-name="Path 599" d="M655.626,332.408a.507.507,0,0,1-.19-.038.49.49,0,0,1-.262-.641l7.964-19.072a.491.491,0,0,1,.906.379l-7.966,19.071A.489.489,0,0,1,655.626,332.408Z" transform="translate(-655.135 -312.355)" fill="#fff"/>
      </g>
    </g>
  </g>
</svg>
